<svg width="319" height="54" viewBox="0 0 319 54" fill="none" xmlns="http://www.w3.org/2000/svg">
<g filter="url(#filter0_d_2258_516)">
<path d="M138 2H313V44.3922H138V2Z" fill="#4A75B9"/>
<path d="M4 2H138V44.3922H4V2Z" fill="#4A75B9"/>
<path d="M9 6.50977H138V39.8823H9V6.50977Z" fill="white"/>
<path d="M20.376 36.36C18.912 36.36 17.568 36.18 16.344 35.82C15.12 35.436 14.016 34.872 13.032 34.128C12.048 33.384 11.172 32.484 10.404 31.428L13.464 27.972C14.64 29.604 15.792 30.732 16.92 31.356C18.048 31.98 19.32 32.292 20.736 32.292C21.552 32.292 22.296 32.172 22.968 31.932C23.64 31.668 24.168 31.32 24.552 30.888C24.936 30.432 25.128 29.916 25.128 29.34C25.128 28.932 25.044 28.56 24.876 28.224C24.732 27.864 24.504 27.552 24.192 27.288C23.88 27 23.496 26.736 23.04 26.496C22.584 26.256 22.068 26.052 21.492 25.884C20.916 25.716 20.28 25.56 19.584 25.416C18.264 25.152 17.112 24.804 16.128 24.372C15.144 23.916 14.316 23.364 13.644 22.716C12.972 22.044 12.48 21.3 12.168 20.484C11.856 19.644 11.7 18.696 11.7 17.64C11.7 16.584 11.928 15.612 12.384 14.724C12.864 13.836 13.512 13.068 14.328 12.42C15.144 11.772 16.092 11.268 17.172 10.908C18.252 10.548 19.416 10.368 20.664 10.368C22.08 10.368 23.34 10.536 24.444 10.872C25.572 11.208 26.556 11.712 27.396 12.384C28.26 13.032 28.968 13.824 29.52 14.76L26.424 17.82C25.944 17.076 25.404 16.464 24.804 15.984C24.204 15.48 23.556 15.108 22.86 14.868C22.164 14.604 21.432 14.472 20.664 14.472C19.8 14.472 19.044 14.592 18.396 14.832C17.772 15.072 17.28 15.42 16.92 15.876C16.56 16.308 16.38 16.836 16.38 17.46C16.38 17.94 16.488 18.372 16.704 18.756C16.92 19.116 17.22 19.44 17.604 19.728C18.012 20.016 18.528 20.268 19.152 20.484C19.776 20.7 20.484 20.892 21.276 21.06C22.596 21.324 23.784 21.684 24.84 22.14C25.896 22.572 26.796 23.1 27.54 23.724C28.284 24.324 28.848 25.02 29.232 25.812C29.616 26.58 29.808 27.444 29.808 28.404C29.808 30.06 29.412 31.488 28.62 32.688C27.852 33.864 26.76 34.776 25.344 35.424C23.928 36.048 22.272 36.36 20.376 36.36ZM34.9543 36V10.8H39.3823L48.5623 25.74L45.9703 25.704L55.2583 10.8H59.4703V36H54.8263V26.532C54.8263 24.372 54.8743 22.428 54.9703 20.7C55.0903 18.972 55.2823 17.256 55.5463 15.552L56.1223 17.1L48.3103 29.16H45.9343L38.3743 17.208L38.8783 15.552C39.1423 17.16 39.3223 18.816 39.4183 20.52C39.5383 22.2 39.5983 24.204 39.5983 26.532V36H34.9543ZM63.4354 36L73.2634 10.8H77.6554L87.4114 36H82.5514L77.1514 21.672C77.0314 21.384 76.8634 20.928 76.6474 20.304C76.4554 19.68 76.2394 19.008 75.9994 18.288C75.7594 17.544 75.5434 16.86 75.3514 16.236C75.1594 15.588 75.0154 15.12 74.9194 14.832L75.8194 14.796C75.6754 15.276 75.5074 15.816 75.3154 16.416C75.1234 17.016 74.9194 17.64 74.7034 18.288C74.4874 18.936 74.2714 19.56 74.0554 20.16C73.8634 20.76 73.6834 21.3 73.5154 21.78L68.1154 36H63.4354ZM67.8994 30.24L69.5194 26.172H81.0034L82.7314 30.24H67.8994ZM91.3801 36V10.8H102.324C103.836 10.8 105.216 11.16 106.464 11.88C107.712 12.576 108.696 13.536 109.416 14.76C110.16 15.96 110.532 17.316 110.532 18.828C110.532 20.268 110.16 21.6 109.416 22.824C108.696 24.024 107.712 24.984 106.464 25.704C105.24 26.4 103.86 26.748 102.324 26.748H95.9521V36H91.3801ZM105.996 36L99.5881 24.624L104.412 23.724L111.54 36.036L105.996 36ZM95.9521 22.68H102.36C103.056 22.68 103.656 22.524 104.16 22.212C104.688 21.876 105.096 21.42 105.384 20.844C105.672 20.268 105.816 19.632 105.816 18.936C105.816 18.144 105.636 17.46 105.276 16.884C104.916 16.308 104.412 15.852 103.764 15.516C103.116 15.18 102.372 15.012 101.532 15.012H95.9521V22.68ZM120.819 36V15.12H113.619V10.8H132.915V15.12H125.499V36H120.819Z" fill="#4A75B9"/>
<path d="M152.692 36L142.612 10.8H147.724L153.34 25.236C153.628 25.98 153.88 26.652 154.096 27.252C154.312 27.828 154.504 28.356 154.672 28.836C154.84 29.316 154.984 29.784 155.104 30.24C155.248 30.696 155.404 31.176 155.572 31.68H154.564C154.732 31.032 154.912 30.396 155.104 29.772C155.296 29.124 155.512 28.44 155.752 27.72C156.016 27 156.328 26.172 156.688 25.236L161.944 10.8H167.092L156.94 36H152.692ZM165.568 36L175.396 10.8H179.788L189.544 36H184.684L179.284 21.672C179.164 21.384 178.996 20.928 178.78 20.304C178.588 19.68 178.372 19.008 178.132 18.288C177.892 17.544 177.676 16.86 177.484 16.236C177.292 15.588 177.148 15.12 177.052 14.832L177.952 14.796C177.808 15.276 177.64 15.816 177.448 16.416C177.256 17.016 177.052 17.64 176.836 18.288C176.62 18.936 176.404 19.56 176.188 20.16C175.996 20.76 175.816 21.3 175.648 21.78L170.248 36H165.568ZM170.032 30.24L171.652 26.172H183.136L184.864 30.24H170.032ZM203.502 36.36C201.678 36.36 200.01 36.048 198.498 35.424C196.986 34.8 195.678 33.912 194.574 32.76C193.47 31.584 192.606 30.204 191.982 28.62C191.382 27.012 191.082 25.26 191.082 23.364C191.082 21.54 191.406 19.848 192.054 18.288C192.702 16.728 193.602 15.36 194.754 14.184C195.906 13.008 197.25 12.096 198.786 11.448C200.322 10.8 201.99 10.476 203.79 10.476C205.014 10.476 206.202 10.656 207.354 11.016C208.506 11.376 209.562 11.88 210.522 12.528C211.482 13.152 212.286 13.884 212.934 14.724L209.946 18C209.322 17.352 208.674 16.812 208.002 16.38C207.354 15.924 206.67 15.588 205.95 15.372C205.254 15.132 204.534 15.012 203.79 15.012C202.686 15.012 201.642 15.216 200.658 15.624C199.698 16.032 198.858 16.608 198.138 17.352C197.442 18.096 196.89 18.984 196.482 20.016C196.074 21.024 195.87 22.152 195.87 23.4C195.87 24.672 196.062 25.824 196.446 26.856C196.854 27.888 197.418 28.776 198.138 29.52C198.882 30.264 199.758 30.84 200.766 31.248C201.798 31.632 202.926 31.824 204.15 31.824C204.942 31.824 205.71 31.716 206.454 31.5C207.198 31.284 207.882 30.984 208.506 30.6C209.154 30.192 209.742 29.724 210.27 29.196L212.574 32.904C211.998 33.552 211.23 34.14 210.27 34.668C209.31 35.196 208.23 35.616 207.03 35.928C205.854 36.216 204.678 36.36 203.502 36.36ZM228.111 36.36C226.287 36.36 224.619 36.048 223.107 35.424C221.595 34.8 220.287 33.912 219.183 32.76C218.079 31.584 217.215 30.204 216.591 28.62C215.991 27.012 215.691 25.26 215.691 23.364C215.691 21.54 216.015 19.848 216.663 18.288C217.311 16.728 218.211 15.36 219.363 14.184C220.515 13.008 221.859 12.096 223.395 11.448C224.931 10.8 226.599 10.476 228.399 10.476C229.623 10.476 230.811 10.656 231.963 11.016C233.115 11.376 234.171 11.88 235.131 12.528C236.091 13.152 236.895 13.884 237.543 14.724L234.555 18C233.931 17.352 233.283 16.812 232.611 16.38C231.963 15.924 231.279 15.588 230.559 15.372C229.863 15.132 229.143 15.012 228.399 15.012C227.295 15.012 226.251 15.216 225.267 15.624C224.307 16.032 223.467 16.608 222.747 17.352C222.051 18.096 221.499 18.984 221.091 20.016C220.683 21.024 220.479 22.152 220.479 23.4C220.479 24.672 220.671 25.824 221.055 26.856C221.463 27.888 222.027 28.776 222.747 29.52C223.491 30.264 224.367 30.84 225.375 31.248C226.407 31.632 227.535 31.824 228.759 31.824C229.551 31.824 230.319 31.716 231.063 31.5C231.807 31.284 232.491 30.984 233.115 30.6C233.763 30.192 234.351 29.724 234.879 29.196L237.183 32.904C236.607 33.552 235.839 34.14 234.879 34.668C233.919 35.196 232.839 35.616 231.639 35.928C230.463 36.216 229.287 36.36 228.111 36.36ZM241.273 36V31.86H245.413V14.94H241.273V10.8H254.233V14.94H250.093V31.86H254.233V36H241.273ZM260.204 36V10.8H264.416L279.032 30.492L278.24 30.636C278.144 29.964 278.06 29.28 277.988 28.584C277.916 27.864 277.844 27.12 277.772 26.352C277.724 25.584 277.676 24.78 277.628 23.94C277.604 23.1 277.58 22.224 277.556 21.312C277.532 20.376 277.52 19.392 277.52 18.36V10.8H282.164V36H277.88L263.192 16.596L264.128 16.344C264.248 17.688 264.344 18.84 264.416 19.8C264.512 20.736 264.584 21.552 264.632 22.248C264.68 22.92 264.716 23.484 264.74 23.94C264.788 24.396 264.812 24.816 264.812 25.2C264.836 25.56 264.848 25.908 264.848 26.244V36H260.204ZM288.927 36V10.8H305.415V15.048H293.535V31.752H305.559V36H288.927ZM291.087 25.2V21.024H303.579V25.2H291.087Z" fill="white"/>
</g>
<defs>
<filter id="filter0_d_2258_516" x="0" y="1" width="319" height="52.3922" filterUnits="userSpaceOnUse" color-interpolation-filters="sRGB">
<feFlood flood-opacity="0" result="BackgroundImageFix"/>
<feColorMatrix in="SourceAlpha" type="matrix" values="0 0 0 0 0 0 0 0 0 0 0 0 0 0 0 0 0 0 127 0" result="hardAlpha"/>
<feOffset dx="1" dy="4"/>
<feGaussianBlur stdDeviation="2.5"/>
<feComposite in2="hardAlpha" operator="out"/>
<feColorMatrix type="matrix" values="0 0 0 0 0 0 0 0 0 0 0 0 0 0 0 0 0 0 0.3 0"/>
<feBlend mode="normal" in2="BackgroundImageFix" result="effect1_dropShadow_2258_516"/>
<feBlend mode="normal" in="SourceGraphic" in2="effect1_dropShadow_2258_516" result="shape"/>
</filter>
</defs>
</svg>
